<svg width="170" height="157" viewBox="0 0 170 157" fill="none" xmlns="http://www.w3.org/2000/svg">
<path d="M49.1137 74.6896C49.1137 84.6307 57.1726 92.6896 67.1137 92.6896L94.1137 92.6896C96.8751 92.6896 99.1137 90.451 99.1137 87.6896L99.1137 53.6896C99.1137 48.1667 94.6366 43.6896 89.1137 43.6896L54.1137 43.6896C51.3523 43.6896 49.1137 45.9282 49.1137 48.6896L49.1137 74.6896Z" fill="#FFF1DA"/>
<path d="M97.7089 88.6301C96.3501 88.9413 95.0259 89.5107 93.8186 90.3026C90.6735 92.3156 88.8395 95.1734 89.7225 96.6852C90.6056 98.1969 93.8711 97.7897 97.0162 95.7767C98.2397 95.0125 99.3272 94.0386 100.212 92.9152C100.623 92.3726 100.698 91.699 100.404 91.1975L99.2567 89.2336C98.9648 88.7305 98.3574 88.4941 97.7089 88.6301Z" fill="#D5D6DB"/>
<path d="M89.8188 61.6373C88.8335 61.8631 87.8732 62.2762 86.9977 62.8504C84.7177 64.3097 83.3871 66.3819 84.0269 67.4771C84.6667 68.5724 87.0354 68.2769 89.3152 66.8178C90.2023 66.2633 90.9908 65.5568 91.6325 64.7422C91.9299 64.3488 91.9842 63.8608 91.7712 63.4973L90.9405 62.0752C90.7292 61.7106 90.2891 61.5387 89.8188 61.6373Z" fill="#D5D6DB"/>
<path d="M77.0058 62.8323C76.7866 62.8092 76.5527 62.8688 76.3496 62.9991L70.9936 66.4279C70.5456 66.7138 70.3653 67.2604 70.5912 67.649C70.6429 67.7381 70.7137 67.814 70.7998 67.8723L83.9578 76.8505L101.817 65.4172L77.0058 62.8323Z" fill="#029BC5"/>
<path d="M133.37 61.3644L84.8188 91.9837L56.1106 103.496L41.477 106.472L39.8746 103.764L120.8 53.6983C123.212 52.1999 125.897 51.2732 128.583 51.0121C129.76 50.904 130.921 50.936 132.041 51.107C133.033 51.2508 133.974 51.5339 134.836 51.9479C135.797 52.4171 137.63 52.4611 138.221 53.4037C138.223 53.4021 139.613 57.7372 133.37 61.3644Z" fill="#E1E6E9"/>
<path d="M85.5074 88.0607L64.4457 121.474C64.1825 121.943 64.3368 122.466 64.7899 122.642C65.068 122.75 65.4088 122.704 65.6954 122.522L71.0437 119.118C72.0724 118.463 72.9839 117.634 73.7218 116.681L114.525 68.83L85.5074 88.0607Z" fill="#029BC5"/>
<path d="M32.516 86.9251C32.1659 86.8077 31.7489 86.8721 31.3964 87.0978L26.9708 89.9311C26.3677 90.3169 26.126 91.0531 26.4307 91.5758C26.4887 91.6752 26.5642 91.7625 26.6548 91.8343L39.0107 101.652L52.0473 93.465L32.516 86.9251Z" fill="#029BC5"/>
<path d="M43.1893 103.478L36.5104 112.793C36.4125 112.927 36.435 113.095 36.5607 113.167C36.6513 113.219 36.7753 113.209 36.8761 113.141L41.0074 110.515C41.0395 110.495 41.0686 110.47 41.0926 110.44L50.8472 98.6158L43.1893 103.478Z" fill="#029BC5"/>
<path d="M131.223 51.5398C130.069 51.3619 128.872 51.3295 127.66 51.4428C126.475 53.0943 125.716 54.9461 125.458 56.8136C125.439 57.1885 125.741 57.4565 126.134 57.4122C126.256 57.3982 126.378 57.3548 126.487 57.2857L134.104 52.4159C133.216 51.9842 132.246 51.6893 131.223 51.5398Z" fill="#029BC5"/>
<path d="M114.641 60.4838L119.621 57.3181L124.234 65.1583L119.254 68.324L114.641 60.4838Z" fill="#D5D6DB"/>
<path d="M111.518 63.5734C110.918 63.956 110.676 64.6856 110.979 65.2029L111.47 66.041C111.793 66.545 112.532 66.6293 113.122 66.2293C113.684 65.8483 113.911 65.1609 113.642 64.656L113.152 63.8179C112.849 63.301 112.118 63.1914 111.518 63.5734Z" fill="#3A556A"/>
<path d="M107.053 66.3459C106.453 66.7285 106.212 67.4581 106.515 67.9754L107.005 68.8135C107.328 69.3175 108.068 69.4018 108.658 69.0018C109.219 68.6208 109.447 67.9334 109.178 67.4285L108.687 66.5904C108.384 66.0736 107.653 65.9641 107.053 66.3459Z" fill="#3A556A"/>
<path d="M102.588 69.1192C101.988 69.5023 101.748 70.231 102.05 70.7479L102.541 71.586C102.864 72.0899 103.603 72.1743 104.193 71.7742C104.755 71.3933 104.982 70.7059 104.713 70.201L104.223 69.3629C103.92 68.8456 103.188 68.7365 102.588 69.1192Z" fill="#3A556A"/>
<path d="M98.1233 71.8916C97.5239 72.2746 97.2834 73.0034 97.5859 73.5203L98.0765 74.3584C98.3993 74.8624 99.139 74.9467 99.7289 74.5467C100.29 74.1657 100.518 73.4783 100.249 72.9734L99.7584 72.1353C99.4553 71.6181 98.7234 71.509 98.1233 71.8916Z" fill="#3A556A"/>
<path d="M93.6594 74.6643C93.0596 75.0475 92.819 75.7766 93.1217 76.2938L93.6126 77.1323C93.9152 77.6492 94.6468 77.7582 95.2467 77.3758C95.8467 76.9934 96.0877 76.2643 95.7851 75.7474L95.2942 74.9089C94.9924 74.3915 94.261 74.2817 93.6607 74.6635C93.6602 74.6638 93.6599 74.664 93.6594 74.6643Z" fill="#3A556A"/>
<path d="M89.195 77.4367C88.5952 77.82 88.3546 78.5491 88.6573 79.0662L89.1482 79.9047C89.4508 80.4216 90.1824 80.5306 90.7823 80.1482C91.3823 79.7658 91.6233 79.0367 91.3207 78.5198L90.8298 77.6813C90.528 77.164 89.7966 77.0542 89.1963 77.4359C89.1958 77.4363 89.1953 77.4366 89.195 77.4367Z" fill="#3A556A"/>
<path d="M84.7304 80.2093C84.1306 80.5925 83.89 81.3216 84.1927 81.8387L84.6835 82.6772C84.9869 83.1936 85.7189 83.3015 86.3182 82.9185C86.9164 82.5363 87.157 81.8088 86.8558 81.2925L86.3649 80.454C86.0624 79.9368 85.3308 79.8272 84.7304 80.2093Z" fill="#3A556A"/>
<path d="M80.2658 82.9818C79.666 83.365 79.4254 84.0941 79.7281 84.6112L80.219 85.4497C80.5223 85.9661 81.2543 86.074 81.8536 85.6911C82.4518 85.3088 82.6924 84.5813 82.3912 84.065L81.9003 83.2265C81.5978 82.7092 80.8662 82.5996 80.2658 82.9818Z" fill="#3A556A"/>
<path d="M75.8015 85.7542C75.2017 86.1374 74.9611 86.8665 75.2638 87.3836L75.7547 88.2221C76.058 88.7385 76.79 88.8464 77.3893 88.4635C77.9875 88.0812 78.2281 87.3537 77.9269 86.8374L77.436 85.999C77.1333 85.4819 76.4017 85.3722 75.8015 85.7542Z" fill="#3A556A"/>
<path d="M71.3357 88.5274C70.7358 88.9098 70.4948 89.6389 70.7973 90.1558L70.798 90.1569L71.2888 90.9954C71.5922 91.5118 72.3242 91.6197 72.9235 91.2368C73.5217 90.8545 73.7622 90.127 73.4611 89.6107L72.9702 88.7722C72.6677 88.2549 71.9361 88.1453 71.3357 88.5274Z" fill="#3A556A"/>
<path d="M66.8725 91.2991C66.2726 91.6815 66.0316 92.4106 66.3342 92.9274L66.3348 92.9285L66.8257 93.767C67.129 94.2834 67.861 94.3913 68.4603 94.0084C69.0586 93.6261 69.2991 92.8986 68.9979 92.3824L68.507 91.5439C68.2043 91.0268 67.4727 90.9172 66.8725 91.2991Z" fill="#3A556A"/>
</svg>
